<?xml version="1.0" encoding="UTF-8"?>
<svg width="40px" height="40px" viewBox="0 0 40 40" version="1.1" xmlns="http://www.w3.org/2000/svg" xmlns:xlink="http://www.w3.org/1999/xlink">
    <!-- Generator: Sketch 41.1 (35376) - http://www.bohemiancoding.com/sketch -->
    <title>icon-gallery</title>
    <desc>Created with Sketch.</desc>
    <defs></defs>
    <g id="Symbols" stroke="none" stroke-width="1" fill="none" fill-rule="evenodd">
        <g id="icon-gallery">
            <g id="Group" transform="translate(1.000000, 1.000000)" stroke="#FFFFFF" stroke-width="2">
                <ellipse id="Oval-2" cx="19" cy="18.7194713" rx="19" ry="18.5869565"></ellipse>
            </g>
            <path d="M8,16.0058587 C8,14.8980535 8.88976324,14 10.0035949,14 L30.9964051,14 C32.10296,14 33,14.8970601 33,16.0058587 L33,25.9941413 C33,27.1019465 32.1102368,28 30.9964051,28 L10.0035949,28 C8.89703997,28 8,27.1029399 8,25.9941413 L8,16.0058587 Z M20,27 C23.3137085,27 26,24.3137085 26,21 C26,17.6862915 23.3137085,15 20,15 C16.6862915,15 14,17.6862915 14,21 C14,24.3137085 16.6862915,27 20,27 Z M20,26 C22.7614237,26 25,23.7614237 25,21 C25,18.2385763 22.7614237,16 20,16 C17.2385763,16 15,18.2385763 15,21 C15,23.7614237 17.2385763,26 20,26 Z M11,13 L15,13 L15,14 L11,14 L11,13 Z M26,15 L29,15 L29,17 L26,17 L26,15 Z" id="Combined-Shape" fill="#FFFFFF"></path>
        </g>
    </g>
</svg>