<?xml version="1.0" encoding="UTF-8"?>
<svg width="40px" height="40px" viewBox="0 0 40 40" version="1.1" xmlns="http://www.w3.org/2000/svg" xmlns:xlink="http://www.w3.org/1999/xlink">
    <!-- Generator: Sketch 41.1 (35376) - http://www.bohemiancoding.com/sketch -->
    <title>icon-music</title>
    <desc>Created with Sketch.</desc>
    <defs></defs>
    <g id="Symbols" stroke="none" stroke-width="1" fill="none" fill-rule="evenodd">
        <g id="icon-music">
            <g id="Group" transform="translate(1.000000, 1.000000)" stroke="#FFFFFF" stroke-width="2">
                <ellipse id="Oval-2" cx="19" cy="18.7194713" rx="19" ry="18.5869565"></ellipse>
            </g>
            <g id="Group-2" transform="translate(7.000000, 9.000000)" fill="#FFFFFF">
                <rect id="Rectangle-5" x="6" y="0" width="18" height="5"></rect>
                <rect id="Rectangle-13" x="6" y="5" width="2" height="11"></rect>
                <rect id="Rectangle-13" x="22" y="5" width="2" height="11"></rect>
                <path d="M4.61582973,20.2287051 C6.82496873,20.2287051 8.54920796,18.0410496 8.54920796,16.6603377 C8.54920796,15.2796258 6.82496873,15.2287051 4.61582973,15.2287051 C2.40669073,15.2287051 0.615829734,16.3479932 0.615829734,17.7287051 C0.615829734,19.109417 2.40669073,20.2287051 4.61582973,20.2287051 Z" id="Oval-4" transform="translate(4.582519, 17.728705) rotate(-20.000000) translate(-4.582519, -17.728705) "></path>
                <path d="M20.6158297,19.2059191 C22.8249687,19.2059191 24.549208,17.0182636 24.549208,15.6375517 C24.549208,14.2568399 22.8249687,14.2059191 20.6158297,14.2059191 C18.4066907,14.2059191 16.6158297,15.3252073 16.6158297,16.7059191 C16.6158297,18.086631 18.4066907,19.2059191 20.6158297,19.2059191 Z" id="Oval-4" transform="translate(20.582519, 16.705919) rotate(-20.000000) translate(-20.582519, -16.705919) "></path>
            </g>
        </g>
    </g>
</svg>