<?xml version="1.0" encoding="UTF-8"?>
<svg width="40px" height="40px" viewBox="0 0 40 40" version="1.1" xmlns="http://www.w3.org/2000/svg" xmlns:xlink="http://www.w3.org/1999/xlink">
    <!-- Generator: Sketch 41.1 (35376) - http://www.bohemiancoding.com/sketch -->
    <title>Combined Shape</title>
    <desc>Created with Sketch.</desc>
    <defs></defs>
    <g id="Symbols" stroke="none" stroke-width="1" fill="none" fill-rule="evenodd">
        <g id="Menu" transform="translate(-20.000000, -20.000000)" fill="#FFFFFF">
            <g id="Combined-Shape">
                <path d="M47.3516789,59.847608 L44.004652,59.847608 L51.3799913,48.4905814 L51.3799913,53.4009606 L47.3516789,59.847608 Z M48.5415213,59.847608 L51.3799913,59.847608 L51.3799913,55.3051064 L48.5415213,59.847608 Z M57.3575088,37.4333285 L54.5244812,37.4333285 L49.6724801,44.904755 L51.3799913,44.904755 L51.3799913,46.6378983 L43.9085648,58.1428862 L43.9085648,53.7804063 L49.6724801,44.904755 L52.5055077,44.904755 L57.3575088,37.4333285 Z M58.5606553,37.4333285 L60,37.4333285 L54.866657,44.904755 L53.7086542,44.904755 L58.5606553,37.4333285 Z M43.9085648,58.1428862 L43.9085648,53.7804063 L39.9684779,59.847608 L42.8015055,59.847608 L43.9085648,58.1428862 Z M38.7860737,59.8156679 C37.7393293,59.7567395 36.7141809,59.6170084 35.7167659,59.4026121 L39.923804,52.9243415 L39.923804,58.0637168 L38.7860749,59.815666 Z M53.3213348,37.4333285 L49.9837854,37.4333285 L43.9085648,46.7883479 L43.9085648,51.9277232 L48.4693337,44.904755 L45.1317843,44.904755 L45.1317843,44.904755 L48.4693337,44.904755 L53.3213348,37.4333285 Z M43.6173326,52.3761815 L40.2797832,52.3761815 L39.923804,52.9243415 L39.923804,58.0637168 L43.6173326,52.3761815 Z M34.6778319,59.1497471 C33.8834729,58.9335075 33.1088621,58.6693525 32.3572962,58.3605788 L36.5448657,51.9122872 C37.3636123,52.1425826 38.2165335,52.2912623 39.0942944,52.3489913 L34.6778319,59.1497471 Z M48.780639,37.4333285 L45.9476114,37.4333285 L41.0956103,44.904755 L43.9286379,44.904755 L43.9286379,44.904755 L43.9085648,44.904755 L43.9085648,44.9356648 L43.9286379,44.904755 Z M31.422164,57.947873 C24.6709024,54.7578266 20,47.8862892 20,39.923804 C20,28.9201909 28.9201909,20 39.923804,20 L39.923804,27.4714265 C33.0465458,27.4714265 27.4714265,33.0465458 27.4714265,39.923804 C27.4714265,45.2629646 30.8316602,49.8173006 35.5527082,51.5873927 L31.422164,57.947873 Z M44.744465,37.4333285 L39.923804,37.4333285 L34.9965031,44.904755 L39.8924639,44.904755 L44.744465,37.4333285 Z M39.923804,20 L54.866657,20 L50.0631478,27.4714265 L39.923804,27.4714265 L39.923804,20 Z"></path>
            </g>
        </g>
    </g>
</svg>